# xmcd
#
# Track frame offsets:
#	150
#	11361
#	24235
#	36821
#	51529
#	68900
#	82292
#	89406
#	103413
#	126175
#	148162
#	169806
#	189461
#	202919
#	220317
#
# Disc length: 3125 seconds
#
# Revision: 1
# Processed by: cddbd v1.5.2PL0 Copyright (c) Steve Scherf et al.
# Submitted via: audiograbber 1.83.01
#
DISCID=dd0c330f
DTITLE=American Folk Blues Fest  - Disc 2
DYEAR=1900
DGENRE=
TTITLE0=The Blues Is Everywhere
TTITLE1=John Henry
TTITLE2=Wish Me Well
TTITLE3=Memphis Boogie
TTITLE4=My Captain
TTITLE5=Catfish Blues
TTITLE6=Blow Wind, Blow
TTITLE7=My Home Is in the Delta
TTITLE8=Five Long Years
TTITLE9=That's All I Want, Baby
TTITLE10=Don't Misuse Me
TTITLE11=I Don't Know
TTITLE12=I'm Gettin' Tired
TTITLE13=Goin' Down Slow
TTITLE14=Sonny Boy's Harmonica Blues
EXTD=
EXTT0=
EXTT1=
EXTT2=
EXTT3=
EXTT4=
EXTT5=
EXTT6=
EXTT7=
EXTT8=
EXTT9=
EXTT10=
EXTT11=
EXTT12=
EXTT13=
EXTT14=
PLAYORDER=
